<?xml version="1.0" encoding="utf-8"?>
<!-- Generator: Adobe Illustrator 25.2.1, SVG Export Plug-In . SVG Version: 6.00 Build 0)  -->
<svg version="1.1" xmlns="http://www.w3.org/2000/svg" xmlns:xlink="http://www.w3.org/1999/xlink" x="0px" y="0px"
	 viewBox="0 0 811.02 560" style="enable-background:new 0 0 811.02 560;" xml:space="preserve">
<style type="text/css">
	.st0{fill:#147970;}
	.st1{fill:#FCBD02;}
	.st2{fill:#606060;}
	.st3{fill:#FFFFFF;}
	.st4{fill:#F2F2F2;}
	.st5{font-family:'Poppins-Light';}
	.st6{font-size:35.6645px;}
	.st7{font-size:102.2017px;}
</style>
<g id="Layer_1">
	<g>
		<text transform="matrix(1 0 0 0.91 190.5527 371.2857)" class="st3 st5 st6">EASE INTO A BRIGHTER FUTURE.</text>
		<g>
			<text transform="matrix(1 0 0 1 262.2266 313.0396)" class="st3 st5 st7">earnEase</text>
			<g>
				<g>
					<path class="st3" d="M220.62,206.63h-28.72c-16.78,0-29.43,11.31-35.77,26.86l-38.7,88.28h28.13
						c17.14,0,27.45-6.17,36.53-28.72L220.62,206.63z"/>
				</g>
				<g>
					<path class="st3" d="M180.24,323.02h29.94c22.39,0,39.68-15.13,44.79-44.79v0h-29.94
						C201.17,279.65,184.62,294.75,180.24,323.02L180.24,323.02z"/>
				</g>
			</g>
		</g>
		<g>
			<polygon class="st3" points="706.51,359.58 743.44,361.08 706.51,362.58 			"/>
		</g>
		<g>
			<polygon class="st3" points="183.51,362.58 146.58,361.08 183.51,359.58 			"/>
		</g>
	</g>
</g>
<g id="Layer_2">
</g>
</svg>
