<?xml version="1.0" encoding="utf-8"?>
<!-- Generator: Adobe Illustrator 25.2.1, SVG Export Plug-In . SVG Version: 6.00 Build 0)  -->
<svg version="1.1" xmlns="http://www.w3.org/2000/svg" xmlns:xlink="http://www.w3.org/1999/xlink" x="0px" y="0px"
	 viewBox="0 0 811.02 560" style="enable-background:new 0 0 811.02 560;" xml:space="preserve">
<style type="text/css">
	.st0{fill:#147970;}
	.st1{fill:#FCBD02;}
	.st2{fill:#606060;}
	.st3{fill:#FFFFFF;}
	.st4{fill:#F2F2F2;}
	.st5{font-family:'Poppins-Light';}
	.st6{font-size:34.3957px;}
	.st7{font-size:98.5655px;}
</style>
<g id="Layer_1">
	<g>
		<text transform="matrix(1 0 0 0.91 174.1609 350.5715)" class="st5 st6">EASE INTO A BRIGHTER FUTURE.</text>
		<g>
			<text transform="matrix(1 0 0 1 243.2825 294.3979)" class="st5 st7">earnEase</text>
			<g>
				<path class="st0" d="M203.16,191.78h-27.69c-16.19,0-28.39,10.91-34.49,25.9l-37.33,85.14h27.13c16.53,0,26.47-5.95,35.23-27.7
					L203.16,191.78z"/>
				<path class="st1" d="M164.21,304.03h28.87c21.6,0,38.26-14.59,43.19-43.19v0h-28.87C184.4,262.2,168.44,276.75,164.21,304.03
					L164.21,304.03z"/>
			</g>
		</g>
		<g>
			<polygon points="671.76,339.23 707.37,340.73 671.76,342.23 			"/>
		</g>
		<g>
			<polygon points="167.37,342.23 131.76,340.73 167.37,339.23 			"/>
		</g>
	</g>
</g>
<g id="Layer_2">
</g>
</svg>
